<svg xmlns="http://www.w3.org/2000/svg" xmlns:xlink="http://www.w3.org/1999/xlink" width="794" zoomAndPan="magnify" viewBox="0 0 594.95996 254.999984" height="340" preserveAspectRatio="xMidYMid meet" version="1.0"><defs><g/><clipPath id="824810695e"><path d="M 25.511719 25.464844 L 229.496094 25.464844 L 229.496094 166 L 25.511719 166 Z M 25.511719 25.464844 " clip-rule="nonzero"/></clipPath><clipPath id="ddb420af37"><path d="M 45 186 L 192 186 L 192 229.449219 L 45 229.449219 Z M 45 186 " clip-rule="nonzero"/></clipPath></defs><g clip-path="url(#824810695e)"><path fill="#e6e6e6" d="M 122.949219 165.058594 C 130.710938 160.867188 173.199219 140.445312 222.773438 164.351562 C 227.320312 152.609375 229.652344 140.242188 229.652344 127.527344 C 229.652344 71.246094 183.855469 25.464844 127.5625 25.464844 C 71.28125 25.464844 25.492188 71.246094 25.492188 127.527344 C 25.492188 137.769531 27.023438 147.875 30.015625 157.601562 C 40.804688 155.023438 83.351562 146.757812 122.949219 165.058594 Z M 122.949219 165.058594 " fill-opacity="1" fill-rule="nonzero"/></g><path fill="#283e56" d="M 129.074219 168.085938 L 129.214844 168.160156 C 145.804688 177.070312 157.980469 183.601562 167.753906 187.730469 C 183.65625 174.066406 211.425781 173.34375 218.757812 173.398438 C 219.445312 172.03125 220.085938 170.699219 220.667969 169.410156 C 178.320312 148.847656 141.566406 162.214844 129.074219 168.085938 Z M 129.074219 168.085938 " fill-opacity="1" fill-rule="nonzero"/><path fill="#182533" d="M 208.367188 189.84375 C 211.042969 186.417969 213.539062 182.773438 215.792969 178.90625 C 206.820312 179.144531 186.617188 180.746094 173.675781 190.027344 C 186.101562 194.410156 195.234375 194.285156 208.367188 189.84375 Z M 208.367188 189.84375 " fill-opacity="1" fill-rule="nonzero"/><g clip-path="url(#ddb420af37)"><path fill="#385779" d="M 126.214844 200.476562 C 92.984375 181.652344 57.453125 186.289062 45.808594 188.542969 C 65.050781 214.304688 95.277344 229.589844 127.5625 229.589844 C 150.832031 229.589844 173.347656 221.582031 191.320312 207.21875 C 184.585938 209.414062 175.960938 211.289062 166.078125 211.289062 C 154.191406 211.289062 140.519531 208.582031 126.214844 200.476562 Z M 126.214844 200.476562 " fill-opacity="1" fill-rule="nonzero"/></g><path fill="#182533" d="M 128.90625 195.714844 C 161.421875 214.144531 190.273438 202.761719 200.046875 197.777344 C 196.738281 198.425781 193.570312 198.75 190.4375 198.75 C 183.140625 198.75 175.960938 197 167.265625 193.46875 C 156.976562 189.289062 144.25 182.445312 126.628906 172.980469 L 126.265625 172.78125 C 124.84375 172.015625 123.378906 171.273438 121.960938 170.613281 C 84.628906 152.757812 42.929688 160.300781 31.820312 162.820312 C 34.519531 170.164062 38.050781 177.15625 42.382812 183.660156 C 51.609375 181.542969 91.144531 174.328125 128.90625 195.714844 Z M 128.90625 195.714844 " fill-opacity="1" fill-rule="nonzero"/><g fill="#385779" fill-opacity="1"><g transform="translate(257.505047, 165.370966)"><g><path d="M 3.4375 -6.09375 L 56.921875 -71.765625 L 4.3125 -71.765625 L 4.3125 -78.625 L 65.890625 -78.625 L 65.890625 -72.546875 L 13.0625 -6.859375 L 65.78125 -6.859375 L 65.78125 0 L 3.4375 0 Z M 3.4375 -6.09375 "/></g></g></g><g fill="#385779" fill-opacity="1"><g transform="translate(327.165649, 165.370966)"><g><path d="M 62.6875 -6.859375 L 62.6875 0 L 9.859375 0 L 9.859375 -78.625 L 61.6875 -78.625 L 61.6875 -71.765625 L 17.609375 -71.765625 L 17.609375 -43.40625 L 56.046875 -43.40625 L 56.046875 -36.875 L 17.609375 -36.875 L 17.609375 -6.859375 Z M 62.6875 -6.859375 "/></g></g></g><g fill="#385779" fill-opacity="1"><g transform="translate(394.611277, 165.370966)"><g><path d="M 41.53125 0.546875 C 35.988281 0.546875 30.96875 -0.554688 26.46875 -2.765625 C 21.96875 -4.984375 18.09375 -7.992188 14.84375 -11.796875 C 11.59375 -15.597656 9.082031 -19.878906 7.3125 -24.640625 C 5.539062 -29.398438 4.65625 -34.289062 4.65625 -39.3125 C 4.65625 -44.550781 5.578125 -49.550781 7.421875 -54.3125 C 9.265625 -59.082031 11.863281 -63.332031 15.21875 -67.0625 C 18.582031 -70.789062 22.515625 -73.742188 27.015625 -75.921875 C 31.523438 -78.097656 36.398438 -79.1875 41.640625 -79.1875 C 47.179688 -79.1875 52.203125 -78.039062 56.703125 -75.75 C 61.203125 -73.457031 65.054688 -70.390625 68.265625 -66.546875 C 71.484375 -62.710938 73.976562 -58.429688 75.75 -53.703125 C 77.519531 -48.984375 78.40625 -44.148438 78.40625 -39.203125 C 78.40625 -33.960938 77.484375 -28.960938 75.640625 -24.203125 C 73.796875 -19.441406 71.210938 -15.195312 67.890625 -11.46875 C 64.566406 -7.738281 60.648438 -4.800781 56.140625 -2.65625 C 51.640625 -0.519531 46.769531 0.546875 41.53125 0.546875 Z M 12.40625 -39.3125 C 12.40625 -35.03125 13.101562 -30.914062 14.5 -26.96875 C 15.90625 -23.019531 17.898438 -19.507812 20.484375 -16.4375 C 23.066406 -13.375 26.148438 -10.9375 29.734375 -9.125 C 33.316406 -7.320312 37.25 -6.421875 41.53125 -6.421875 C 46.03125 -6.421875 50.070312 -7.363281 53.65625 -9.25 C 57.238281 -11.132812 60.300781 -13.644531 62.84375 -16.78125 C 65.394531 -19.914062 67.332031 -23.4375 68.65625 -27.34375 C 69.988281 -31.257812 70.65625 -35.25 70.65625 -39.3125 C 70.65625 -43.59375 69.953125 -47.691406 68.546875 -51.609375 C 67.148438 -55.523438 65.140625 -59.03125 62.515625 -62.125 C 59.898438 -65.226562 56.816406 -67.664062 53.265625 -69.4375 C 49.722656 -71.207031 45.8125 -72.09375 41.53125 -72.09375 C 37.101562 -72.09375 33.097656 -71.171875 29.515625 -69.328125 C 25.929688 -67.484375 22.863281 -64.988281 20.3125 -61.84375 C 17.769531 -58.707031 15.816406 -55.179688 14.453125 -51.265625 C 13.085938 -47.359375 12.40625 -43.375 12.40625 -39.3125 Z M 12.40625 -39.3125 "/></g></g></g><g fill="#385779" fill-opacity="1"><g transform="translate(477.783153, 165.370966)"><g><path d="M 17.609375 -64.34375 L 17.609375 0 L 9.859375 0 L 9.859375 -78.625 L 16.28125 -78.625 L 67.890625 -13.0625 L 67.890625 -78.515625 L 75.640625 -78.515625 L 75.640625 0 L 68.4375 0 Z M 17.609375 -64.34375 "/></g></g></g><g fill="#385779" fill-opacity="1"><g transform="translate(344.711445, 202.230395)"><g><path d="M 7.71875 -17.75 L 9.203125 -17.75 L 16.578125 0 L 14.71875 0 L 12.421875 -5.546875 L 4.453125 -5.546875 L 2.171875 0 L 0.296875 0 Z M 12.03125 -6.921875 L 8.453125 -15.703125 L 4.828125 -6.921875 Z M 12.03125 -6.921875 "/></g></g></g><g fill="#385779" fill-opacity="1"><g transform="translate(381.606269, 202.230395)"><g><path d="M 9.375 0.125 C 8.125 0.125 6.988281 -0.128906 5.96875 -0.640625 C 4.957031 -1.148438 4.082031 -1.828125 3.34375 -2.671875 C 2.613281 -3.523438 2.046875 -4.488281 1.640625 -5.5625 C 1.242188 -6.632812 1.046875 -7.738281 1.046875 -8.875 C 1.046875 -10.0625 1.253906 -11.191406 1.671875 -12.265625 C 2.085938 -13.335938 2.675781 -14.296875 3.4375 -15.140625 C 4.195312 -15.984375 5.082031 -16.648438 6.09375 -17.140625 C 7.113281 -17.628906 8.21875 -17.875 9.40625 -17.875 C 10.65625 -17.875 11.785156 -17.613281 12.796875 -17.09375 C 13.816406 -16.582031 14.6875 -15.890625 15.40625 -15.015625 C 16.132812 -14.148438 16.695312 -13.1875 17.09375 -12.125 C 17.5 -11.0625 17.703125 -9.96875 17.703125 -8.84375 C 17.703125 -7.664062 17.492188 -6.535156 17.078125 -5.453125 C 16.660156 -4.378906 16.078125 -3.421875 15.328125 -2.578125 C 14.578125 -1.742188 13.691406 -1.082031 12.671875 -0.59375 C 11.660156 -0.113281 10.5625 0.125 9.375 0.125 Z M 9.375 -1.453125 C 10.394531 -1.453125 11.304688 -1.660156 12.109375 -2.078125 C 12.921875 -2.503906 13.613281 -3.070312 14.1875 -3.78125 C 14.757812 -4.488281 15.195312 -5.285156 15.5 -6.171875 C 15.800781 -7.054688 15.953125 -7.957031 15.953125 -8.875 C 15.953125 -9.84375 15.789062 -10.769531 15.46875 -11.65625 C 15.15625 -12.550781 14.703125 -13.34375 14.109375 -14.03125 C 13.515625 -14.726562 12.816406 -15.28125 12.015625 -15.6875 C 11.222656 -16.09375 10.34375 -16.296875 9.375 -16.296875 C 8.375 -16.296875 7.46875 -16.082031 6.65625 -15.65625 C 5.851562 -15.238281 5.160156 -14.675781 4.578125 -13.96875 C 4.003906 -13.257812 3.5625 -12.460938 3.25 -11.578125 C 2.945312 -10.691406 2.796875 -9.789062 2.796875 -8.875 C 2.796875 -7.90625 2.953125 -6.972656 3.265625 -6.078125 C 3.585938 -5.191406 4.039062 -4.398438 4.625 -3.703125 C 5.207031 -3.015625 5.898438 -2.46875 6.703125 -2.0625 C 7.515625 -1.65625 8.40625 -1.453125 9.375 -1.453125 Z M 10.96875 -5.453125 L 12.703125 -5.453125 L 17.296875 0 L 15.578125 0 Z M 10.96875 -5.453125 "/></g></g></g><g fill="#385779" fill-opacity="1"><g transform="translate(420.325673, 202.230395)"><g><path d="M 9.453125 0.125 C 8.046875 0.125 6.859375 -0.125 5.890625 -0.625 C 4.929688 -1.125 4.164062 -1.796875 3.59375 -2.640625 C 3.03125 -3.484375 2.617188 -4.4375 2.359375 -5.5 C 2.097656 -6.5625 1.96875 -7.660156 1.96875 -8.796875 L 1.96875 -17.75 L 3.703125 -17.75 L 3.703125 -8.796875 C 3.703125 -7.878906 3.796875 -6.976562 3.984375 -6.09375 C 4.179688 -5.21875 4.492188 -4.425781 4.921875 -3.71875 C 5.359375 -3.019531 5.941406 -2.46875 6.671875 -2.0625 C 7.410156 -1.65625 8.328125 -1.453125 9.421875 -1.453125 C 10.554688 -1.453125 11.492188 -1.660156 12.234375 -2.078125 C 12.972656 -2.503906 13.554688 -3.066406 13.984375 -3.765625 C 14.410156 -4.472656 14.710938 -5.265625 14.890625 -6.140625 C 15.078125 -7.015625 15.171875 -7.898438 15.171875 -8.796875 L 15.171875 -17.75 L 16.921875 -17.75 L 16.921875 -8.796875 C 16.921875 -7.617188 16.785156 -6.488281 16.515625 -5.40625 C 16.253906 -4.320312 15.828125 -3.367188 15.234375 -2.546875 C 14.640625 -1.734375 13.867188 -1.082031 12.921875 -0.59375 C 11.972656 -0.113281 10.816406 0.125 9.453125 0.125 Z M 9.453125 0.125 "/></g></g></g><g fill="#385779" fill-opacity="1"><g transform="translate(459.195053, 202.230395)"><g><path d="M 7.71875 -17.75 L 9.203125 -17.75 L 16.578125 0 L 14.71875 0 L 12.421875 -5.546875 L 4.453125 -5.546875 L 2.171875 0 L 0.296875 0 Z M 12.03125 -6.921875 L 8.453125 -15.703125 L 4.828125 -6.921875 Z M 12.03125 -6.921875 "/></g></g></g></svg>