<svg xmlns="http://www.w3.org/2000/svg" xmlns:xlink="http://www.w3.org/1999/xlink" width="500" zoomAndPan="magnify" viewBox="0 0 375 374.999991" height="500" preserveAspectRatio="xMidYMid meet" version="1.0"><defs><g/><clipPath id="6c2bcc32bc"><path d="M 30.128906 30.128906 L 345 30.128906 L 345 246 L 30.128906 246 Z M 30.128906 30.128906 " clip-rule="nonzero"/></clipPath></defs><g clip-path="url(#6c2bcc32bc)"><path fill="#e6e6e6" d="M 180.367188 245.371094 C 192.335938 238.902344 257.851562 207.417969 334.285156 244.28125 C 341.296875 226.171875 344.894531 207.101562 344.894531 187.5 C 344.894531 100.714844 274.28125 30.128906 187.480469 30.128906 C 100.703125 30.128906 30.101562 100.714844 30.101562 187.5 C 30.101562 203.292969 32.460938 218.871094 37.074219 233.871094 C 53.707031 229.894531 119.3125 217.148438 180.367188 245.371094 Z M 180.367188 245.371094 " fill-opacity="1" fill-rule="nonzero"/></g><path fill="#283e56" d="M 189.8125 250.035156 L 190.03125 250.148438 C 215.609375 263.886719 234.386719 273.960938 249.457031 280.324219 C 273.96875 259.253906 316.792969 258.144531 328.09375 258.226562 C 329.15625 256.117188 330.144531 254.0625 331.039062 252.074219 C 265.746094 220.371094 209.074219 240.980469 189.8125 250.035156 Z M 189.8125 250.035156 " fill-opacity="1" fill-rule="nonzero"/><path fill="#182533" d="M 312.078125 283.585938 C 316.203125 278.304688 320.046875 272.679688 323.523438 266.71875 C 309.691406 267.085938 278.539062 269.558594 258.582031 283.867188 C 277.742188 290.625 291.824219 290.429688 312.078125 283.585938 Z M 312.078125 283.585938 " fill-opacity="1" fill-rule="nonzero"/><path fill="#385779" d="M 185.402344 299.976562 C 134.167969 270.949219 79.378906 278.101562 61.425781 281.578125 C 91.09375 321.300781 137.703125 344.871094 187.480469 344.871094 C 223.363281 344.871094 258.082031 332.523438 285.789062 310.375 C 275.40625 313.757812 262.105469 316.648438 246.867188 316.648438 C 228.542969 316.652344 207.457031 312.472656 185.402344 299.976562 Z M 185.402344 299.976562 " fill-opacity="1" fill-rule="nonzero"/><path fill="#182533" d="M 189.554688 292.640625 C 239.691406 321.050781 284.175781 303.503906 299.246094 295.816406 C 294.144531 296.8125 289.257812 297.320312 284.429688 297.320312 C 273.179688 297.320312 262.105469 294.621094 248.699219 289.171875 C 232.835938 282.730469 213.210938 272.175781 186.042969 257.585938 L 185.480469 257.277344 C 183.289062 256.097656 181.03125 254.953125 178.84375 253.933594 C 121.285156 226.402344 56.988281 238.03125 39.855469 241.917969 C 44.019531 253.242188 49.46875 264.019531 56.144531 274.046875 C 70.371094 270.78125 131.332031 259.65625 189.554688 292.640625 Z M 189.554688 292.640625 " fill-opacity="1" fill-rule="nonzero"/><g fill="#385779" fill-opacity="1"><g transform="translate(67.387167, 172.861271)"><g><path d="M 2.703125 -4.78125 L 44.71875 -56.375 L 3.390625 -56.375 L 3.390625 -61.765625 L 51.765625 -61.765625 L 51.765625 -56.984375 L 10.265625 -5.390625 L 51.671875 -5.390625 L 51.671875 0 L 2.703125 0 Z M 2.703125 -4.78125 "/></g></g></g><g fill="#385779" fill-opacity="1"><g transform="translate(122.107854, 172.861271)"><g><path d="M 49.234375 -5.390625 L 49.234375 0 L 7.75 0 L 7.75 -61.765625 L 48.453125 -61.765625 L 48.453125 -56.375 L 13.828125 -56.375 L 13.828125 -34.109375 L 44.015625 -34.109375 L 44.015625 -28.96875 L 13.828125 -28.96875 L 13.828125 -5.390625 Z M 49.234375 -5.390625 "/></g></g></g><g fill="#385779" fill-opacity="1"><g transform="translate(175.088622, 172.861271)"><g><path d="M 32.625 0.4375 C 28.269531 0.4375 24.320312 -0.429688 20.78125 -2.171875 C 17.25 -3.910156 14.207031 -6.273438 11.65625 -9.265625 C 9.101562 -12.253906 7.128906 -15.617188 5.734375 -19.359375 C 4.347656 -23.097656 3.65625 -26.941406 3.65625 -30.890625 C 3.65625 -35.003906 4.378906 -38.929688 5.828125 -42.671875 C 7.273438 -46.410156 9.316406 -49.742188 11.953125 -52.671875 C 14.597656 -55.609375 17.6875 -57.929688 21.21875 -59.640625 C 24.757812 -61.347656 28.59375 -62.203125 32.71875 -62.203125 C 37.0625 -62.203125 41 -61.300781 44.53125 -59.5 C 48.070312 -57.707031 51.101562 -55.300781 53.625 -52.28125 C 56.15625 -49.269531 58.113281 -45.90625 59.5 -42.1875 C 60.894531 -38.476562 61.59375 -34.679688 61.59375 -30.796875 C 61.59375 -26.679688 60.867188 -22.75 59.421875 -19 C 57.972656 -15.257812 55.941406 -11.925781 53.328125 -9 C 50.722656 -6.070312 47.648438 -3.765625 44.109375 -2.078125 C 40.566406 -0.398438 36.738281 0.4375 32.625 0.4375 Z M 9.75 -30.890625 C 9.75 -27.523438 10.296875 -24.289062 11.390625 -21.1875 C 12.492188 -18.082031 14.0625 -15.328125 16.09375 -12.921875 C 18.125 -10.515625 20.546875 -8.597656 23.359375 -7.171875 C 26.171875 -5.753906 29.257812 -5.046875 32.625 -5.046875 C 36.164062 -5.046875 39.34375 -5.785156 42.15625 -7.265625 C 44.96875 -8.742188 47.375 -10.710938 49.375 -13.171875 C 51.375 -15.640625 52.894531 -18.410156 53.9375 -21.484375 C 54.976562 -24.554688 55.5 -27.691406 55.5 -30.890625 C 55.5 -34.253906 54.945312 -37.472656 53.84375 -40.546875 C 52.75 -43.617188 51.171875 -46.367188 49.109375 -48.796875 C 47.046875 -51.234375 44.625 -53.148438 41.84375 -54.546875 C 39.0625 -55.941406 35.988281 -56.640625 32.625 -56.640625 C 29.144531 -56.640625 26 -55.910156 23.1875 -54.453125 C 20.375 -53.003906 17.96875 -51.046875 15.96875 -48.578125 C 13.96875 -46.117188 12.429688 -43.351562 11.359375 -40.28125 C 10.285156 -37.207031 9.75 -34.078125 9.75 -30.890625 Z M 9.75 -30.890625 "/></g></g></g><g fill="#385779" fill-opacity="1"><g transform="translate(240.422866, 172.861271)"><g><path d="M 13.828125 -50.546875 L 13.828125 0 L 7.75 0 L 7.75 -61.765625 L 12.78125 -61.765625 L 53.328125 -10.265625 L 53.328125 -61.6875 L 59.421875 -61.6875 L 59.421875 0 L 53.765625 0 Z M 13.828125 -50.546875 "/></g></g></g><g fill="#385779" fill-opacity="1"><g transform="translate(124.518524, 202.996422)"><g><path d="M 7.40625 -17 L 8.8125 -17 L 15.875 0 L 14.109375 0 L 11.90625 -5.3125 L 4.265625 -5.3125 L 2.078125 0 L 0.28125 0 Z M 11.515625 -6.640625 L 8.09375 -15.046875 L 4.625 -6.640625 Z M 11.515625 -6.640625 "/></g></g></g><g fill="#385779" fill-opacity="1"><g transform="translate(159.882915, 202.996422)"><g><path d="M 8.984375 0.125 C 7.785156 0.125 6.695312 -0.117188 5.71875 -0.609375 C 4.75 -1.097656 3.910156 -1.75 3.203125 -2.5625 C 2.503906 -3.375 1.960938 -4.296875 1.578125 -5.328125 C 1.191406 -6.359375 1 -7.414062 1 -8.5 C 1 -9.632812 1.195312 -10.71875 1.59375 -11.75 C 2 -12.78125 2.566406 -13.695312 3.296875 -14.5 C 4.023438 -15.3125 4.875 -15.953125 5.84375 -16.421875 C 6.820312 -16.890625 7.875 -17.125 9 -17.125 C 10.195312 -17.125 11.28125 -16.875 12.25 -16.375 C 13.226562 -15.882812 14.066406 -15.222656 14.765625 -14.390625 C 15.460938 -13.566406 16 -12.640625 16.375 -11.609375 C 16.757812 -10.585938 16.953125 -9.546875 16.953125 -8.484375 C 16.953125 -7.347656 16.753906 -6.265625 16.359375 -5.234375 C 15.960938 -4.203125 15.40625 -3.28125 14.6875 -2.46875 C 13.96875 -1.664062 13.117188 -1.03125 12.140625 -0.5625 C 11.171875 -0.101562 10.117188 0.125 8.984375 0.125 Z M 8.984375 -1.390625 C 9.953125 -1.390625 10.820312 -1.59375 11.59375 -2 C 12.375 -2.40625 13.039062 -2.945312 13.59375 -3.625 C 14.144531 -4.300781 14.5625 -5.0625 14.84375 -5.90625 C 15.132812 -6.757812 15.28125 -7.625 15.28125 -8.5 C 15.28125 -9.425781 15.128906 -10.316406 14.828125 -11.171875 C 14.523438 -12.023438 14.085938 -12.78125 13.515625 -13.4375 C 12.953125 -14.101562 12.285156 -14.632812 11.515625 -15.03125 C 10.753906 -15.425781 9.910156 -15.625 8.984375 -15.625 C 8.023438 -15.625 7.15625 -15.414062 6.375 -15 C 5.601562 -14.59375 4.941406 -14.050781 4.390625 -13.375 C 3.835938 -12.695312 3.414062 -11.9375 3.125 -11.09375 C 2.832031 -10.25 2.6875 -9.382812 2.6875 -8.5 C 2.6875 -7.570312 2.835938 -6.679688 3.140625 -5.828125 C 3.441406 -4.972656 3.867188 -4.210938 4.421875 -3.546875 C 4.984375 -2.890625 5.648438 -2.363281 6.421875 -1.96875 C 7.203125 -1.582031 8.054688 -1.390625 8.984375 -1.390625 Z M 10.515625 -5.21875 L 12.171875 -5.21875 L 16.578125 0 L 14.921875 0 Z M 10.515625 -5.21875 "/></g></g></g><g fill="#385779" fill-opacity="1"><g transform="translate(196.996348, 202.996422)"><g><path d="M 9.046875 0.125 C 7.710938 0.125 6.582031 -0.113281 5.65625 -0.59375 C 4.726562 -1.070312 3.992188 -1.710938 3.453125 -2.515625 C 2.910156 -3.328125 2.515625 -4.242188 2.265625 -5.265625 C 2.015625 -6.285156 1.890625 -7.34375 1.890625 -8.4375 L 1.890625 -17 L 3.546875 -17 L 3.546875 -8.4375 C 3.546875 -7.550781 3.632812 -6.6875 3.8125 -5.84375 C 4 -5 4.300781 -4.238281 4.71875 -3.5625 C 5.132812 -2.894531 5.691406 -2.363281 6.390625 -1.96875 C 7.097656 -1.582031 7.976562 -1.390625 9.03125 -1.390625 C 10.113281 -1.390625 11.007812 -1.59375 11.71875 -2 C 12.4375 -2.40625 13 -2.941406 13.40625 -3.609375 C 13.8125 -4.285156 14.101562 -5.039062 14.28125 -5.875 C 14.457031 -6.71875 14.546875 -7.570312 14.546875 -8.4375 L 14.546875 -17 L 16.21875 -17 L 16.21875 -8.4375 C 16.21875 -7.300781 16.085938 -6.210938 15.828125 -5.171875 C 15.578125 -4.128906 15.164062 -3.21875 14.59375 -2.4375 C 14.03125 -1.65625 13.289062 -1.03125 12.375 -0.5625 C 11.46875 -0.101562 10.359375 0.125 9.046875 0.125 Z M 9.046875 0.125 "/></g></g></g><g fill="#385779" fill-opacity="1"><g transform="translate(234.253552, 202.996422)"><g><path d="M 7.40625 -17 L 8.8125 -17 L 15.875 0 L 14.109375 0 L 11.90625 -5.3125 L 4.265625 -5.3125 L 2.078125 0 L 0.28125 0 Z M 11.515625 -6.640625 L 8.09375 -15.046875 L 4.625 -6.640625 Z M 11.515625 -6.640625 "/></g></g></g></svg>